<svg id="music-icon" xmlns="http://www.w3.org/2000/svg" width="24" height="24" viewBox="0 0 30 30">
  <defs>
    <style>
      .cls-1 {
        fill: #4c52bc;
      }

      .cls-2 {
        fill: #fff;
        fill-rule: evenodd;
        opacity: 0.9;
      }
    </style>
  </defs>
  <rect id="bg" class="cls-1" width="30" height="30" rx="6" ry="6"/>
  <path id="music" class="cls-2" d="M454,817.629v0.979a0.382,0.382,0,0,1-.375.389h-0.75a0.382,0.382,0,0,1-.375-0.389V818.4a2.113,2.113,0,0,0-1.125-1.834c-0.135-.078-0.255-0.171-0.375-0.257v7a3.013,3.013,0,1,1-3-2.752,3.134,3.134,0,0,1,1.5.381v-8.544a0.382,0.382,0,0,1,.375-0.389h0.75a0.382,0.382,0,0,1,.375.389v0.132a2.088,2.088,0,0,0,1.072,1.881A3.608,3.608,0,0,1,454,817.629h0Z" transform="translate(-434 -804)"/>
</svg>
