<svg version="1.2" xmlns="http://www.w3.org/2000/svg" viewBox="0 0 32 26" width="32" height="26"><defs><clipPath clipPathUnits="userSpaceOnUse" id="cp1"><path d="m-434-368h1600v1200h-1600z"/></clipPath><linearGradient id="P" gradientUnits="userSpaceOnUse"/><linearGradient id="g1" x1="16" y1="0" x2="16" y2="26" href="#P"><stop stop-color="#f8d9af"/><stop offset="1" stop-color="#fbd199"/></linearGradient></defs><style>.a{fill:url(#g1)}.b{fill:#e2ab5f}</style><g clip-path="url(#cp1)"><path class="a" d="m32 6.5v16.2c0 1.8-1.4 3.3-3.2 3.3h-25.6c-1.8 0-3.2-1.5-3.2-3.3v-19.5c0-1.7 1.4-3.2 3.2-3.2h12.1c0.5 0 0.9 0.2 1.2 0.5l2.2 2.3c0.3 0.3 0.7 0.4 1.2 0.4h8.9c1.8 0 3.2 1.5 3.2 3.3z"/><path fill-rule="evenodd" class="b" d="m19.3 10.8c1 0 1.9 0.9 1.9 1.9 0 1-0.9 1.8-1.9 1.8-1 0-1.9-0.8-1.9-1.8 0-1 0.9-1.9 1.9-1.9zm-8.5 0.5c0-1.3 1.1-2.3 2.4-2.3 1.3 0 2.3 1 2.3 2.3 0 1.3-1 2.3-2.3 2.3-1.3 0-2.4-1-2.4-2.3zm8.4 7.6c0.1 0.2 0.1 0.5 0 0.7-0.2 0.3-0.4 0.4-0.7 0.4h-9.7c-0.3 0-0.5-0.1-0.7-0.4-0.1-0.2-0.1-0.5 0-0.7l1.1-2.2c0.5-0.8 1.3-1.3 2.2-1.3h4.5c0.9 0 1.7 0.5 2.1 1.3zm4.7 0.7c-0.1 0.3-0.4 0.4-0.7 0.4h-2.6c0.2-0.6 0.1-1.2-0.2-1.7l-1.1-2h1.6c1 0 1.8 0.5 2.3 1.2l0.7 1.4c0.2 0.3 0.2 0.5 0 0.7z"/></g></svg>