<svg id="memo-icon" xmlns="http://www.w3.org/2000/svg" width="24" height="24" viewBox="0 0 30 30">
  <defs>
    <style>
      .cls-1 {
        fill: #4c52bc;
      }

      .cls-2 {
        fill: #fff;
        fill-rule: evenodd;
        opacity: 0.9;
      }
    </style>
  </defs>
  <rect id="bg" class="cls-1" width="30" height="30" rx="6" ry="6"/>
  <path id="memo" class="cls-2" d="M450,885a1,1,0,0,1-1,1h0a1,1,0,0,1-1-1v-4a1,1,0,0,1,1-1h0a1,1,0,0,1,1,1v4Zm4-8a1,1,0,0,0-1-1h0a1,1,0,0,0-1,1v12a1,1,0,0,0,1,1h0a1,1,0,0,0,1-1V877Zm4,5a1,1,0,0,0-1-1h0a1,1,0,0,0-1,1v2a1,1,0,0,0,1,1h0a1,1,0,0,0,1-1v-2Zm-17-1a1,1,0,0,0-1,1v2a1,1,0,0,0,1,1h0a1,1,0,0,0,1-1v-2a1,1,0,0,0-1-1h0Zm4-3a1,1,0,0,0-1,1v8a1,1,0,0,0,1,1h0a1,1,0,0,0,1-1v-8a1,1,0,0,0-1-1h0Z" transform="translate(-434 -868)"/>
</svg>
