<svg 
 xmlns="http://www.w3.org/2000/svg"
 xmlns:xlink="http://www.w3.org/1999/xlink"
 width="0.417in" height="0.417in">
<path fill-rule="evenodd"  fill="rgb(76, 82, 188)"
 d="M-0.000,6.000 C-0.000,2.686 2.686,-0.000 6.000,-0.000 L24.000,-0.000 C27.314,-0.000 30.000,2.686 30.000,6.000 L30.000,24.000 C30.000,27.314 27.314,30.000 24.000,30.000 L6.000,30.000 C2.686,30.000 -0.000,27.314 -0.000,24.000 L-0.000,6.000 Z"/>
<path fill-rule="evenodd"  opacity="0.902" fill="rgb(255, 255, 255)"
 d="M23.000,17.000 C22.448,17.000 22.000,16.552 22.000,16.000 L22.000,14.000 C22.000,13.448 22.448,13.000 23.000,13.000 C23.552,13.000 24.000,13.448 24.000,14.000 L24.000,16.000 C24.000,16.552 23.552,17.000 23.000,17.000 ZM19.000,22.000 C18.448,22.000 18.000,21.552 18.000,21.000 L18.000,9.000 C18.000,8.448 18.448,8.000 19.000,8.000 C19.552,8.000 20.000,8.448 20.000,9.000 L20.000,21.000 C20.000,21.552 19.552,22.000 19.000,22.000 ZM15.000,18.000 C14.448,18.000 14.000,17.552 14.000,17.000 L14.000,13.000 C14.000,12.448 14.448,12.000 15.000,12.000 C15.552,12.000 16.000,12.448 16.000,13.000 L16.000,17.000 C16.000,17.552 15.552,18.000 15.000,18.000 ZM11.000,20.000 C10.448,20.000 10.000,19.552 10.000,19.000 L10.000,11.000 C10.000,10.448 10.448,10.000 11.000,10.000 C11.552,10.000 12.000,10.448 12.000,11.000 L12.000,19.000 C12.000,19.552 11.552,20.000 11.000,20.000 ZM7.000,17.000 C6.448,17.000 6.000,16.552 6.000,16.000 L6.000,14.000 C6.000,13.448 6.448,13.000 7.000,13.000 C7.552,13.000 8.000,13.448 8.000,14.000 L8.000,16.000 C8.000,16.552 7.552,17.000 7.000,17.000 Z"/>
</svg>